<?xml version="1.0" encoding="utf-8" standalone="no"?>
<!DOCTYPE svg PUBLIC "-//W3C//DTD SVG 1.1//EN"
  "http://www.w3.org/Graphics/SVG/1.1/DTD/svg11.dtd">
<svg xmlns:xlink="http://www.w3.org/1999/xlink" width="730.290762pt" height="712.637812pt" viewBox="0 0 730.290762 712.637812" xmlns="http://www.w3.org/2000/svg" version="1.1">
 <metadata>
  <rdf:RDF xmlns:dc="http://purl.org/dc/elements/1.1/" xmlns:cc="http://creativecommons.org/ns#" xmlns:rdf="http://www.w3.org/1999/02/22-rdf-syntax-ns#">
   <cc:Work>
    <dc:type rdf:resource="http://purl.org/dc/dcmitype/StillImage"/>
    <dc:format>image/svg+xml</dc:format>
    <dc:creator>
     <cc:Agent>
      <dc:title>Matplotlib v3.10.9, https://matplotlib.org/</dc:title>
     </cc:Agent>
    </dc:creator>
   </cc:Work>
  </rdf:RDF>
 </metadata>
 <defs>
  <style type="text/css">*{stroke-linejoin: round; stroke-linecap: butt}</style>
 </defs>
 <g id="figure_1">
  <g id="patch_1">
   <path d="M 0 712.637812 
L 730.290762 712.637812 
L 730.290762 0 
L 0 0 
z
" style="fill: #ffffff"/>
  </g>
  <g id="axes_1">
   <g id="patch_2">
    <path d="M 51.253124 266.514885 
L 160.895064 266.514885 
Q 167.5 266.514885 167.5 259.909949 
L 167.5 150.268009 
Q 167.5 143.663073 160.895064 143.663073 
L 51.253124 143.663073 
Q 44.648188 143.663073 44.648188 150.268009 
L 44.648188 259.909949 
Q 44.648188 266.514885 51.253124 266.514885 
z
" clip-path="url(#clipPath1)" style="fill: #e8e8e8; opacity: 0.7; stroke: #888888; stroke-width: 1.5; stroke-linejoin: miter"/>
   </g>
   <g id="patch_3">
    <path d="M 574.303397 435.931533 
L 683.945336 435.931533 
Q 690.550273 435.931533 690.550273 429.326596 
L 690.550273 319.684657 
Q 690.550273 313.079721 683.945336 313.079721 
L 574.303397 313.079721 
Q 567.698461 313.079721 567.698461 319.684657 
L 567.698461 429.326596 
Q 567.698461 435.931533 574.303397 435.931533 
z
" clip-path="url(#clipPath1)" style="fill: #d4f0c8; opacity: 0.7; stroke: #888888; stroke-width: 1.5; stroke-linejoin: miter"/>
   </g>
   <g id="patch_4">
    <path d="M 46.345425 492.219531 
L 155.987365 492.219531 
Q 162.592301 492.219531 162.592301 485.614595 
L 162.592301 375.972655 
Q 162.592301 369.367719 155.987365 369.367719 
L 46.345425 369.367719 
Q 39.740489 369.367719 39.740489 375.972655 
L 39.740489 485.614595 
Q 39.740489 492.219531 46.345425 492.219531 
z
" clip-path="url(#clipPath1)" style="fill: #e8e8e8; opacity: 0.7; stroke: #888888; stroke-width: 1.5; stroke-linejoin: miter"/>
   </g>
   <g id="patch_5">
    <path d="M 418.033095 374.767277 
L 527.675035 374.767277 
Q 534.279971 374.767277 534.279971 368.162341 
L 534.279971 258.520402 
Q 534.279971 251.915466 527.675035 251.915466 
L 418.033095 251.915466 
Q 411.428159 251.915466 411.428159 258.520402 
L 411.428159 368.162341 
Q 411.428159 374.767277 418.033095 374.767277 
z
" clip-path="url(#clipPath1)" style="fill: #e8e8e8; opacity: 0.7; stroke: #888888; stroke-width: 1.5; stroke-linejoin: miter"/>
   </g>
   <g id="patch_6">
    <path d="M 557.903596 191.035079 
L 667.545536 191.035079 
Q 674.150472 191.035079 674.150472 184.430143 
L 674.150472 74.788203 
Q 674.150472 68.183267 667.545536 68.183267 
L 557.903596 68.183267 
Q 551.29866 68.183267 551.29866 74.788203 
L 551.29866 184.430143 
Q 551.29866 191.035079 557.903596 191.035079 
z
" clip-path="url(#clipPath1)" style="fill: #e8e8e8; opacity: 0.7; stroke: #888888; stroke-width: 1.5; stroke-linejoin: miter"/>
   </g>
   <g id="patch_7">
    <path d="M 205.545766 442.02946 
L 315.187706 442.02946 
Q 321.792642 442.02946 321.792642 435.424524 
L 321.792642 325.782584 
Q 321.792642 319.177648 315.187706 319.177648 
L 205.545766 319.177648 
Q 198.94083 319.177648 198.94083 325.782584 
L 198.94083 435.424524 
Q 198.94083 442.02946 205.545766 442.02946 
z
" clip-path="url(#clipPath1)" style="fill: #e8e8e8; opacity: 0.7; stroke: #888888; stroke-width: 1.5; stroke-linejoin: miter"/>
   </g>
   <g id="patch_8">
    <path d="M 178.653604 675.092358 
L 288.295544 675.092358 
Q 294.90048 675.092358 294.90048 668.487422 
L 294.90048 558.845482 
Q 294.90048 552.240546 288.295544 552.240546 
L 178.653604 552.240546 
Q 172.048668 552.240546 172.048668 558.845482 
L 172.048668 668.487422 
Q 172.048668 675.092358 178.653604 675.092358 
z
" clip-path="url(#clipPath1)" style="fill: #e8e8e8; opacity: 0.7; stroke: #888888; stroke-width: 1.5; stroke-linejoin: miter"/>
   </g>
   <g id="patch_9">
    <path d="M 612.59912 364.407491 
Q 555.873843 331.444546 493.480884 317.509396 
" clip-path="url(#clipPath1)" style="fill: none; stroke: #555555; stroke-width: 1.5; stroke-linecap: round"/>
    <path d="M 498.682687 321.745106 
L 493.480884 317.509396 
L 499.990534 315.88938 
" clip-path="url(#clipPath1)" style="fill: none; stroke: #555555; stroke-width: 1.5; stroke-linecap: round"/>
   </g>
   <g id="patch_10">
    <path d="M 120.369607 428.281718 
Q 184.772807 418.39623 241.696638 390.298934 
" clip-path="url(#clipPath1)" style="fill: none; stroke: #555555; stroke-width: 1.5; stroke-linecap: round"/>
    <path d="M 234.988522 390.264471 
L 241.696638 390.298934 
L 237.644198 395.644749 
" clip-path="url(#clipPath1)" style="fill: none; stroke: #555555; stroke-width: 1.5; stroke-linecap: round"/>
   </g>
   <g id="patch_11">
    <path d="M 489.379312 323.439507 
Q 546.104588 356.402452 608.497548 370.337602 
" clip-path="url(#clipPath1)" style="fill: none; stroke: #555555; stroke-width: 1.5; stroke-linecap: round"/>
    <path d="M 603.295744 366.101892 
L 608.497548 370.337602 
L 601.987898 371.957619 
" clip-path="url(#clipPath1)" style="fill: none; stroke: #555555; stroke-width: 1.5; stroke-linecap: round"/>
   </g>
   <g id="patch_12">
    <path d="M 453.6425 315.768284 
Q 360.936533 329.045215 278.97157 370.771749 
" clip-path="url(#clipPath1)" style="fill: none; stroke: #555555; stroke-width: 1.5; stroke-linecap: round"/>
    <path d="M 285.679599 370.723211 
L 278.97157 370.771749 
L 282.957557 365.376203 
" clip-path="url(#clipPath1)" style="fill: none; stroke: #555555; stroke-width: 1.5; stroke-linecap: round"/>
   </g>
   <g id="patch_13">
    <path d="M 598.40825 142.645406 
Q 527.196958 209.604893 482.391429 294.587478 
" clip-path="url(#clipPath1)" style="fill: none; stroke: #555555; stroke-width: 1.5; stroke-linecap: round"/>
    <path d="M 487.843467 290.679117 
L 482.391429 294.587478 
L 482.535963 287.880832 
" clip-path="url(#clipPath1)" style="fill: none; stroke: #555555; stroke-width: 1.5; stroke-linecap: round"/>
   </g>
   <g id="patch_14">
    <path d="M 250.419962 363.989681 
Q 198.144319 279.727074 122.576436 218.142668 
" clip-path="url(#clipPath1)" style="fill: none; stroke: #555555; stroke-width: 1.5; stroke-linecap: round"/>
    <path d="M 125.332313 224.258643 
L 122.576436 218.142668 
L 129.122742 219.607551 
" clip-path="url(#clipPath1)" style="fill: none; stroke: #555555; stroke-width: 1.5; stroke-linecap: round"/>
   </g>
   <g id="patch_15">
    <path d="M 241.163524 383.115461 
Q 176.760324 393.000949 119.836493 421.098245 
" clip-path="url(#clipPath1)" style="fill: none; stroke: #555555; stroke-width: 1.5; stroke-linecap: round"/>
    <path d="M 126.544609 421.132708 
L 119.836493 421.098245 
L 123.888933 415.75243 
" clip-path="url(#clipPath1)" style="fill: none; stroke: #555555; stroke-width: 1.5; stroke-linecap: round"/>
   </g>
   <g id="patch_16">
    <path d="M 279.578301 378.176641 
Q 372.284268 364.89971 454.24923 323.173176 
" clip-path="url(#clipPath1)" style="fill: none; stroke: #555555; stroke-width: 1.5; stroke-linecap: round"/>
    <path d="M 447.541202 323.221715 
L 454.24923 323.173176 
L 450.263244 328.568722 
" clip-path="url(#clipPath1)" style="fill: none; stroke: #555555; stroke-width: 1.5; stroke-linecap: round"/>
   </g>
   <g id="patch_17">
    <path d="M 254.706015 399.12517 
Q 227.091566 494.847336 232.095076 592.668177 
" clip-path="url(#clipPath1)" style="fill: none; stroke: #555555; stroke-width: 1.5; stroke-linecap: round"/>
    <path d="M 234.784661 586.522761 
L 232.095076 592.668177 
L 228.792495 586.829259 
" clip-path="url(#clipPath1)" style="fill: none; stroke: #555555; stroke-width: 1.5; stroke-linecap: round"/>
   </g>
   <g id="patch_18">
    <path d="M 76.351881 226.224775 
L 135.796306 226.224775 
Q 139.098774 226.224775 139.098774 222.922307 
L 139.098774 187.255652 
Q 139.098774 183.953184 135.796306 183.953184 
L 76.351881 183.953184 
Q 73.049413 183.953184 73.049413 187.255652 
L 73.049413 222.922307 
Q 73.049413 226.224775 76.351881 226.224775 
z
" clip-path="url(#clipPath1)" style="fill: #c7c7c7; stroke: #000000; stroke-width: 1.5; stroke-linejoin: miter"/>
   </g>
   <g id="patch_19">
    <path d="M 599.402154 395.641422 
L 658.846579 395.641422 
Q 662.149047 395.641422 662.149047 392.338954 
L 662.149047 356.672299 
Q 662.149047 353.369831 658.846579 353.369831 
L 599.402154 353.369831 
Q 596.099686 353.369831 596.099686 356.672299 
L 596.099686 392.338954 
Q 596.099686 395.641422 599.402154 395.641422 
z
" clip-path="url(#clipPath1)" style="fill: #98df8a; stroke: #000000; stroke-width: 1.5; stroke-linejoin: miter"/>
   </g>
   <g id="patch_20">
    <path d="M 79.370106 451.92942 
L 122.962684 451.92942 
Q 126.265152 451.92942 126.265152 448.626952 
L 126.265152 412.960297 
Q 126.265152 409.657829 122.962684 409.657829 
L 79.370106 409.657829 
Q 76.067638 409.657829 76.067638 412.960297 
L 76.067638 448.626952 
Q 76.067638 451.92942 79.370106 451.92942 
z
" clip-path="url(#clipPath1)" style="fill: #c7c7c7; stroke: #000000; stroke-width: 1.5; stroke-linejoin: miter"/>
   </g>
   <g id="patch_21">
    <path d="M 424.638031 334.477167 
L 521.070098 334.477167 
Q 524.372567 334.477167 524.372567 331.174699 
L 524.372567 295.508044 
Q 524.372567 292.205576 521.070098 292.205576 
L 424.638031 292.205576 
Q 421.335563 292.205576 421.335563 295.508044 
L 421.335563 331.174699 
Q 421.335563 334.477167 424.638031 334.477167 
z
" clip-path="url(#clipPath1)" style="fill: #c7c7c7; stroke: #000000; stroke-width: 1.5; stroke-linejoin: miter"/>
   </g>
   <g id="patch_22">
    <path d="M 590.928277 150.744968 
L 634.520855 150.744968 
Q 637.823323 150.744968 637.823323 147.4425 
L 637.823323 111.775845 
Q 637.823323 108.473377 634.520855 108.473377 
L 590.928277 108.473377 
Q 587.625809 108.473377 587.625809 111.775845 
L 587.625809 147.4425 
Q 587.625809 150.744968 590.928277 150.744968 
z
" clip-path="url(#clipPath1)" style="fill: #c7c7c7; stroke: #000000; stroke-width: 1.5; stroke-linejoin: miter"/>
   </g>
   <g id="patch_23">
    <path d="M 225.360575 401.739349 
L 295.372897 401.739349 
Q 298.675365 401.739349 298.675365 398.436881 
L 298.675365 362.770226 
Q 298.675365 359.467758 295.372897 359.467758 
L 225.360575 359.467758 
Q 222.058107 359.467758 222.058107 362.770226 
L 222.058107 398.436881 
Q 222.058107 401.739349 225.360575 401.739349 
z
" clip-path="url(#clipPath1)" style="fill: #c7c7c7; stroke: #000000; stroke-width: 1.5; stroke-linejoin: miter"/>
   </g>
   <g id="patch_24">
    <path d="M 211.678285 634.802248 
L 255.270863 634.802248 
Q 258.573331 634.802248 258.573331 631.49978 
L 258.573331 595.833125 
Q 258.573331 592.530657 255.270863 592.530657 
L 211.678285 592.530657 
Q 208.375817 592.530657 208.375817 595.833125 
L 208.375817 631.49978 
Q 208.375817 634.802248 211.678285 634.802248 
z
" clip-path="url(#clipPath1)" style="fill: #c7c7c7; stroke: #000000; stroke-width: 1.5; stroke-linejoin: miter"/>
   </g>
   <g id="text_1">
    <!-- Base Load -->
    <g style="fill: #333333" transform="translate(80.093625 137.828393) scale(0.09 -0.09)">
     <defs>
      <path id="DejaVuSans-Bold-42" d="M 2456 2859 
Q 2741 2859 2887 2984 
Q 3034 3109 3034 3353 
Q 3034 3594 2887 3720 
Q 2741 3847 2456 3847 
L 1791 3847 
L 1791 2859 
L 2456 2859 
z
M 2497 819 
Q 2859 819 3042 972 
Q 3225 1125 3225 1434 
Q 3225 1738 3044 1889 
Q 2863 2041 2497 2041 
L 1791 2041 
L 1791 819 
L 2497 819 
z
M 3616 2497 
Q 4003 2384 4215 2081 
Q 4428 1778 4428 1338 
Q 4428 663 3972 331 
Q 3516 0 2584 0 
L 588 0 
L 588 4666 
L 2394 4666 
Q 3366 4666 3802 4372 
Q 4238 4078 4238 3431 
Q 4238 3091 4078 2852 
Q 3919 2613 3616 2497 
z
" transform="scale(0.015625)"/>
      <path id="DejaVuSans-Bold-61" d="M 2106 1575 
Q 1756 1575 1579 1456 
Q 1403 1338 1403 1106 
Q 1403 894 1545 773 
Q 1688 653 1941 653 
Q 2256 653 2472 879 
Q 2688 1106 2688 1447 
L 2688 1575 
L 2106 1575 
z
M 3816 1997 
L 3816 0 
L 2688 0 
L 2688 519 
Q 2463 200 2181 54 
Q 1900 -91 1497 -91 
Q 953 -91 614 226 
Q 275 544 275 1050 
Q 275 1666 698 1953 
Q 1122 2241 2028 2241 
L 2688 2241 
L 2688 2328 
Q 2688 2594 2478 2717 
Q 2269 2841 1825 2841 
Q 1466 2841 1156 2769 
Q 847 2697 581 2553 
L 581 3406 
Q 941 3494 1303 3539 
Q 1666 3584 2028 3584 
Q 2975 3584 3395 3211 
Q 3816 2838 3816 1997 
z
" transform="scale(0.015625)"/>
      <path id="DejaVuSans-Bold-73" d="M 3272 3391 
L 3272 2541 
Q 2913 2691 2578 2766 
Q 2244 2841 1947 2841 
Q 1628 2841 1473 2761 
Q 1319 2681 1319 2516 
Q 1319 2381 1436 2309 
Q 1553 2238 1856 2203 
L 2053 2175 
Q 2913 2066 3209 1816 
Q 3506 1566 3506 1031 
Q 3506 472 3093 190 
Q 2681 -91 1863 -91 
Q 1516 -91 1145 -36 
Q 775 19 384 128 
L 384 978 
Q 719 816 1070 734 
Q 1422 653 1784 653 
Q 2113 653 2278 743 
Q 2444 834 2444 1013 
Q 2444 1163 2330 1236 
Q 2216 1309 1875 1350 
L 1678 1375 
Q 931 1469 631 1722 
Q 331 1975 331 2491 
Q 331 3047 712 3315 
Q 1094 3584 1881 3584 
Q 2191 3584 2531 3537 
Q 2872 3491 3272 3391 
z
" transform="scale(0.015625)"/>
      <path id="DejaVuSans-Bold-65" d="M 4031 1759 
L 4031 1441 
L 1416 1441 
Q 1456 1047 1700 850 
Q 1944 653 2381 653 
Q 2734 653 3104 758 
Q 3475 863 3866 1075 
L 3866 213 
Q 3469 63 3072 -14 
Q 2675 -91 2278 -91 
Q 1328 -91 801 392 
Q 275 875 275 1747 
Q 275 2603 792 3093 
Q 1309 3584 2216 3584 
Q 3041 3584 3536 3087 
Q 4031 2591 4031 1759 
z
M 2881 2131 
Q 2881 2450 2695 2645 
Q 2509 2841 2209 2841 
Q 1884 2841 1681 2658 
Q 1478 2475 1428 2131 
L 2881 2131 
z
" transform="scale(0.015625)"/>
      <path id="DejaVuSans-Bold-20" transform="scale(0.015625)"/>
      <path id="DejaVuSans-Bold-4c" d="M 588 4666 
L 1791 4666 
L 1791 909 
L 3903 909 
L 3903 0 
L 588 0 
L 588 4666 
z
" transform="scale(0.015625)"/>
      <path id="DejaVuSans-Bold-6f" d="M 2203 2784 
Q 1831 2784 1636 2517 
Q 1441 2250 1441 1747 
Q 1441 1244 1636 976 
Q 1831 709 2203 709 
Q 2569 709 2762 976 
Q 2956 1244 2956 1747 
Q 2956 2250 2762 2517 
Q 2569 2784 2203 2784 
z
M 2203 3584 
Q 3106 3584 3614 3096 
Q 4122 2609 4122 1747 
Q 4122 884 3614 396 
Q 3106 -91 2203 -91 
Q 1297 -91 786 396 
Q 275 884 275 1747 
Q 275 2609 786 3096 
Q 1297 3584 2203 3584 
z
" transform="scale(0.015625)"/>
      <path id="DejaVuSans-Bold-64" d="M 2919 2988 
L 2919 4863 
L 4044 4863 
L 4044 0 
L 2919 0 
L 2919 506 
Q 2688 197 2409 53 
Q 2131 -91 1766 -91 
Q 1119 -91 703 423 
Q 288 938 288 1747 
Q 288 2556 703 3070 
Q 1119 3584 1766 3584 
Q 2128 3584 2408 3439 
Q 2688 3294 2919 2988 
z
M 2181 722 
Q 2541 722 2730 984 
Q 2919 1247 2919 1747 
Q 2919 2247 2730 2509 
Q 2541 2772 2181 2772 
Q 1825 2772 1636 2509 
Q 1447 2247 1447 1747 
Q 1447 1247 1636 984 
Q 1825 722 2181 722 
z
" transform="scale(0.015625)"/>
     </defs>
     <use xlink:href="#DejaVuSans-Bold-42"/>
     <use xlink:href="#DejaVuSans-Bold-61" transform="translate(76.220703 0)"/>
     <use xlink:href="#DejaVuSans-Bold-73" transform="translate(143.701172 0)"/>
     <use xlink:href="#DejaVuSans-Bold-65" transform="translate(203.222656 0)"/>
     <use xlink:href="#DejaVuSans-Bold-20" transform="translate(271.044922 0)"/>
     <use xlink:href="#DejaVuSans-Bold-4c" transform="translate(305.859375 0)"/>
     <use xlink:href="#DejaVuSans-Bold-6f" transform="translate(369.580078 0)"/>
     <use xlink:href="#DejaVuSans-Bold-61" transform="translate(438.28125 0)"/>
     <use xlink:href="#DejaVuSans-Bold-64" transform="translate(505.761719 0)"/>
    </g>
   </g>
   <g id="text_2">
    <!-- Eq4800 -->
    <g style="fill: #333333" transform="translate(610.305226 307.24504) scale(0.09 -0.09)">
     <defs>
      <path id="DejaVuSans-Bold-45" d="M 588 4666 
L 3834 4666 
L 3834 3756 
L 1791 3756 
L 1791 2888 
L 3713 2888 
L 3713 1978 
L 1791 1978 
L 1791 909 
L 3903 909 
L 3903 0 
L 588 0 
L 588 4666 
z
" transform="scale(0.015625)"/>
      <path id="DejaVuSans-Bold-71" d="M 2181 2772 
Q 1825 2772 1636 2509 
Q 1447 2247 1447 1747 
Q 1447 1247 1636 984 
Q 1825 722 2181 722 
Q 2541 722 2730 984 
Q 2919 1247 2919 1747 
Q 2919 2247 2730 2509 
Q 2541 2772 2181 2772 
z
M 2919 506 
Q 2688 197 2409 53 
Q 2131 -91 1766 -91 
Q 1119 -91 703 423 
Q 288 938 288 1747 
Q 288 2556 703 3067 
Q 1119 3578 1766 3578 
Q 2131 3578 2409 3434 
Q 2688 3291 2919 2981 
L 2919 3500 
L 4044 3500 
L 4044 -1331 
L 2919 -1331 
L 2919 506 
z
" transform="scale(0.015625)"/>
      <path id="DejaVuSans-Bold-34" d="M 2356 3675 
L 1038 1722 
L 2356 1722 
L 2356 3675 
z
M 2156 4666 
L 3494 4666 
L 3494 1722 
L 4159 1722 
L 4159 850 
L 3494 850 
L 3494 0 
L 2356 0 
L 2356 850 
L 288 850 
L 288 1881 
L 2156 4666 
z
" transform="scale(0.015625)"/>
      <path id="DejaVuSans-Bold-38" d="M 2228 2088 
Q 1891 2088 1709 1903 
Q 1528 1719 1528 1375 
Q 1528 1031 1709 848 
Q 1891 666 2228 666 
Q 2563 666 2741 848 
Q 2919 1031 2919 1375 
Q 2919 1722 2741 1905 
Q 2563 2088 2228 2088 
z
M 1350 2484 
Q 925 2613 709 2878 
Q 494 3144 494 3541 
Q 494 4131 934 4440 
Q 1375 4750 2228 4750 
Q 3075 4750 3515 4442 
Q 3956 4134 3956 3541 
Q 3956 3144 3739 2878 
Q 3522 2613 3097 2484 
Q 3572 2353 3814 2058 
Q 4056 1763 4056 1313 
Q 4056 619 3595 264 
Q 3134 -91 2228 -91 
Q 1319 -91 855 264 
Q 391 619 391 1313 
Q 391 1763 633 2058 
Q 875 2353 1350 2484 
z
M 1631 3419 
Q 1631 3141 1786 2991 
Q 1941 2841 2228 2841 
Q 2509 2841 2662 2991 
Q 2816 3141 2816 3419 
Q 2816 3697 2662 3845 
Q 2509 3994 2228 3994 
Q 1941 3994 1786 3844 
Q 1631 3694 1631 3419 
z
" transform="scale(0.015625)"/>
      <path id="DejaVuSans-Bold-30" d="M 2944 2338 
Q 2944 3213 2780 3570 
Q 2616 3928 2228 3928 
Q 1841 3928 1675 3570 
Q 1509 3213 1509 2338 
Q 1509 1453 1675 1090 
Q 1841 728 2228 728 
Q 2613 728 2778 1090 
Q 2944 1453 2944 2338 
z
M 4147 2328 
Q 4147 1169 3647 539 
Q 3147 -91 2228 -91 
Q 1306 -91 806 539 
Q 306 1169 306 2328 
Q 306 3491 806 4120 
Q 1306 4750 2228 4750 
Q 3147 4750 3647 4120 
Q 4147 3491 4147 2328 
z
" transform="scale(0.015625)"/>
     </defs>
     <use xlink:href="#DejaVuSans-Bold-45"/>
     <use xlink:href="#DejaVuSans-Bold-71" transform="translate(68.310547 0)"/>
     <use xlink:href="#DejaVuSans-Bold-34" transform="translate(139.892578 0)"/>
     <use xlink:href="#DejaVuSans-Bold-38" transform="translate(209.472656 0)"/>
     <use xlink:href="#DejaVuSans-Bold-30" transform="translate(279.052734 0)"/>
     <use xlink:href="#DejaVuSans-Bold-30" transform="translate(348.632812 0)"/>
    </g>
   </g>
   <g id="text_3">
    <!-- Grid -->
    <g style="fill: #333333" transform="translate(90.490145 363.533039) scale(0.09 -0.09)">
     <defs>
      <path id="DejaVuSans-Bold-47" d="M 4781 347 
Q 4331 128 3847 18 
Q 3363 -91 2847 -91 
Q 1681 -91 1000 561 
Q 319 1213 319 2328 
Q 319 3456 1012 4103 
Q 1706 4750 2913 4750 
Q 3378 4750 3804 4662 
Q 4231 4575 4609 4403 
L 4609 3438 
Q 4219 3659 3833 3768 
Q 3447 3878 3059 3878 
Q 2341 3878 1952 3476 
Q 1563 3075 1563 2328 
Q 1563 1588 1938 1184 
Q 2313 781 3003 781 
Q 3191 781 3352 804 
Q 3513 828 3641 878 
L 3641 1784 
L 2906 1784 
L 2906 2591 
L 4781 2591 
L 4781 347 
z
" transform="scale(0.015625)"/>
      <path id="DejaVuSans-Bold-72" d="M 3138 2547 
Q 2991 2616 2845 2648 
Q 2700 2681 2553 2681 
Q 2122 2681 1889 2404 
Q 1656 2128 1656 1613 
L 1656 0 
L 538 0 
L 538 3500 
L 1656 3500 
L 1656 2925 
Q 1872 3269 2151 3426 
Q 2431 3584 2822 3584 
Q 2878 3584 2943 3579 
Q 3009 3575 3134 3559 
L 3138 2547 
z
" transform="scale(0.015625)"/>
      <path id="DejaVuSans-Bold-69" d="M 538 3500 
L 1656 3500 
L 1656 0 
L 538 0 
L 538 3500 
z
M 538 4863 
L 1656 4863 
L 1656 3950 
L 538 3950 
L 538 4863 
z
" transform="scale(0.015625)"/>
     </defs>
     <use xlink:href="#DejaVuSans-Bold-47"/>
     <use xlink:href="#DejaVuSans-Bold-72" transform="translate(82.080078 0)"/>
     <use xlink:href="#DejaVuSans-Bold-69" transform="translate(131.396484 0)"/>
     <use xlink:href="#DejaVuSans-Bold-64" transform="translate(165.673828 0)"/>
    </g>
   </g>
   <g id="text_4">
    <!-- Inverter Primary -->
    <g style="fill: #333333" transform="translate(430.844455 246.010473) scale(0.09 -0.09)">
     <defs>
      <path id="DejaVuSans-Bold-49" d="M 588 4666 
L 1791 4666 
L 1791 0 
L 588 0 
L 588 4666 
z
" transform="scale(0.015625)"/>
      <path id="DejaVuSans-Bold-6e" d="M 4056 2131 
L 4056 0 
L 2931 0 
L 2931 347 
L 2931 1631 
Q 2931 2084 2911 2256 
Q 2891 2428 2841 2509 
Q 2775 2619 2662 2680 
Q 2550 2741 2406 2741 
Q 2056 2741 1856 2470 
Q 1656 2200 1656 1722 
L 1656 0 
L 538 0 
L 538 3500 
L 1656 3500 
L 1656 2988 
Q 1909 3294 2193 3439 
Q 2478 3584 2822 3584 
Q 3428 3584 3742 3212 
Q 4056 2841 4056 2131 
z
" transform="scale(0.015625)"/>
      <path id="DejaVuSans-Bold-76" d="M 97 3500 
L 1216 3500 
L 2088 1081 
L 2956 3500 
L 4078 3500 
L 2700 0 
L 1472 0 
L 97 3500 
z
" transform="scale(0.015625)"/>
      <path id="DejaVuSans-Bold-74" d="M 1759 4494 
L 1759 3500 
L 2913 3500 
L 2913 2700 
L 1759 2700 
L 1759 1216 
Q 1759 972 1856 886 
Q 1953 800 2241 800 
L 2816 800 
L 2816 0 
L 1856 0 
Q 1194 0 917 276 
Q 641 553 641 1216 
L 641 2700 
L 84 2700 
L 84 3500 
L 641 3500 
L 641 4494 
L 1759 4494 
z
" transform="scale(0.015625)"/>
      <path id="DejaVuSans-Bold-50" d="M 588 4666 
L 2584 4666 
Q 3475 4666 3951 4270 
Q 4428 3875 4428 3144 
Q 4428 2409 3951 2014 
Q 3475 1619 2584 1619 
L 1791 1619 
L 1791 0 
L 588 0 
L 588 4666 
z
M 1791 3794 
L 1791 2491 
L 2456 2491 
Q 2806 2491 2997 2661 
Q 3188 2831 3188 3144 
Q 3188 3456 2997 3625 
Q 2806 3794 2456 3794 
L 1791 3794 
z
" transform="scale(0.015625)"/>
      <path id="DejaVuSans-Bold-6d" d="M 3781 2919 
Q 3994 3244 4286 3414 
Q 4578 3584 4928 3584 
Q 5531 3584 5847 3212 
Q 6163 2841 6163 2131 
L 6163 0 
L 5038 0 
L 5038 1825 
Q 5041 1866 5042 1909 
Q 5044 1953 5044 2034 
Q 5044 2406 4934 2573 
Q 4825 2741 4581 2741 
Q 4263 2741 4089 2478 
Q 3916 2216 3909 1719 
L 3909 0 
L 2784 0 
L 2784 1825 
Q 2784 2406 2684 2573 
Q 2584 2741 2328 2741 
Q 2006 2741 1831 2477 
Q 1656 2213 1656 1722 
L 1656 0 
L 531 0 
L 531 3500 
L 1656 3500 
L 1656 2988 
Q 1863 3284 2130 3434 
Q 2397 3584 2719 3584 
Q 3081 3584 3359 3409 
Q 3638 3234 3781 2919 
z
" transform="scale(0.015625)"/>
      <path id="DejaVuSans-Bold-79" d="M 78 3500 
L 1197 3500 
L 2138 1125 
L 2938 3500 
L 4056 3500 
L 2584 -331 
Q 2363 -916 2067 -1148 
Q 1772 -1381 1288 -1381 
L 641 -1381 
L 641 -647 
L 991 -647 
Q 1275 -647 1404 -556 
Q 1534 -466 1606 -231 
L 1638 -134 
L 78 3500 
z
" transform="scale(0.015625)"/>
     </defs>
     <use xlink:href="#DejaVuSans-Bold-49"/>
     <use xlink:href="#DejaVuSans-Bold-6e" transform="translate(37.207031 0)"/>
     <use xlink:href="#DejaVuSans-Bold-76" transform="translate(108.398438 0)"/>
     <use xlink:href="#DejaVuSans-Bold-65" transform="translate(173.583984 0)"/>
     <use xlink:href="#DejaVuSans-Bold-72" transform="translate(241.40625 0)"/>
     <use xlink:href="#DejaVuSans-Bold-74" transform="translate(290.722656 0)"/>
     <use xlink:href="#DejaVuSans-Bold-65" transform="translate(338.525391 0)"/>
     <use xlink:href="#DejaVuSans-Bold-72" transform="translate(406.347656 0)"/>
     <use xlink:href="#DejaVuSans-Bold-20" transform="translate(455.664062 0)"/>
     <use xlink:href="#DejaVuSans-Bold-50" transform="translate(490.478516 0)"/>
     <use xlink:href="#DejaVuSans-Bold-72" transform="translate(563.769531 0)"/>
     <use xlink:href="#DejaVuSans-Bold-69" transform="translate(613.085938 0)"/>
     <use xlink:href="#DejaVuSans-Bold-6d" transform="translate(647.363281 0)"/>
     <use xlink:href="#DejaVuSans-Bold-61" transform="translate(751.5625 0)"/>
     <use xlink:href="#DejaVuSans-Bold-72" transform="translate(819.042969 0)"/>
     <use xlink:href="#DejaVuSans-Bold-79" transform="translate(868.359375 0)"/>
    </g>
   </g>
   <g id="text_5">
    <!-- Pv -->
    <g style="fill: #333333" transform="translate(606.492769 62.348587) scale(0.09 -0.09)">
     <use xlink:href="#DejaVuSans-Bold-50"/>
     <use xlink:href="#DejaVuSans-Bold-76" transform="translate(73.291016 0)"/>
    </g>
   </g>
   <g id="text_6">
    <!-- Switchboard -->
    <g style="fill: #333333" transform="translate(228.614314 313.342968) scale(0.09 -0.09)">
     <defs>
      <path id="DejaVuSans-Bold-53" d="M 3834 4519 
L 3834 3531 
Q 3450 3703 3084 3790 
Q 2719 3878 2394 3878 
Q 1963 3878 1756 3759 
Q 1550 3641 1550 3391 
Q 1550 3203 1689 3098 
Q 1828 2994 2194 2919 
L 2706 2816 
Q 3484 2659 3812 2340 
Q 4141 2022 4141 1434 
Q 4141 663 3683 286 
Q 3225 -91 2284 -91 
Q 1841 -91 1394 -6 
Q 947 78 500 244 
L 500 1259 
Q 947 1022 1364 901 
Q 1781 781 2169 781 
Q 2563 781 2772 912 
Q 2981 1044 2981 1288 
Q 2981 1506 2839 1625 
Q 2697 1744 2272 1838 
L 1806 1941 
Q 1106 2091 782 2419 
Q 459 2747 459 3303 
Q 459 4000 909 4375 
Q 1359 4750 2203 4750 
Q 2588 4750 2994 4692 
Q 3400 4634 3834 4519 
z
" transform="scale(0.015625)"/>
      <path id="DejaVuSans-Bold-77" d="M 225 3500 
L 1313 3500 
L 1900 1088 
L 2491 3500 
L 3425 3500 
L 4013 1113 
L 4603 3500 
L 5691 3500 
L 4769 0 
L 3547 0 
L 2956 2406 
L 2369 0 
L 1147 0 
L 225 3500 
z
" transform="scale(0.015625)"/>
      <path id="DejaVuSans-Bold-63" d="M 3366 3391 
L 3366 2478 
Q 3138 2634 2908 2709 
Q 2678 2784 2431 2784 
Q 1963 2784 1702 2511 
Q 1441 2238 1441 1747 
Q 1441 1256 1702 982 
Q 1963 709 2431 709 
Q 2694 709 2930 787 
Q 3166 866 3366 1019 
L 3366 103 
Q 3103 6 2833 -42 
Q 2563 -91 2291 -91 
Q 1344 -91 809 395 
Q 275 881 275 1747 
Q 275 2613 809 3098 
Q 1344 3584 2291 3584 
Q 2566 3584 2833 3536 
Q 3100 3488 3366 3391 
z
" transform="scale(0.015625)"/>
      <path id="DejaVuSans-Bold-68" d="M 4056 2131 
L 4056 0 
L 2931 0 
L 2931 347 
L 2931 1625 
Q 2931 2084 2911 2256 
Q 2891 2428 2841 2509 
Q 2775 2619 2662 2680 
Q 2550 2741 2406 2741 
Q 2056 2741 1856 2470 
Q 1656 2200 1656 1722 
L 1656 0 
L 538 0 
L 538 4863 
L 1656 4863 
L 1656 2988 
Q 1909 3294 2193 3439 
Q 2478 3584 2822 3584 
Q 3428 3584 3742 3212 
Q 4056 2841 4056 2131 
z
" transform="scale(0.015625)"/>
      <path id="DejaVuSans-Bold-62" d="M 2400 722 
Q 2759 722 2948 984 
Q 3138 1247 3138 1747 
Q 3138 2247 2948 2509 
Q 2759 2772 2400 2772 
Q 2041 2772 1848 2508 
Q 1656 2244 1656 1747 
Q 1656 1250 1848 986 
Q 2041 722 2400 722 
z
M 1656 2988 
Q 1888 3294 2169 3439 
Q 2450 3584 2816 3584 
Q 3463 3584 3878 3070 
Q 4294 2556 4294 1747 
Q 4294 938 3878 423 
Q 3463 -91 2816 -91 
Q 2450 -91 2169 54 
Q 1888 200 1656 506 
L 1656 0 
L 538 0 
L 538 4863 
L 1656 4863 
L 1656 2988 
z
" transform="scale(0.015625)"/>
     </defs>
     <use xlink:href="#DejaVuSans-Bold-53"/>
     <use xlink:href="#DejaVuSans-Bold-77" transform="translate(72.021484 0)"/>
     <use xlink:href="#DejaVuSans-Bold-69" transform="translate(164.404297 0)"/>
     <use xlink:href="#DejaVuSans-Bold-74" transform="translate(198.681641 0)"/>
     <use xlink:href="#DejaVuSans-Bold-63" transform="translate(246.484375 0)"/>
     <use xlink:href="#DejaVuSans-Bold-68" transform="translate(305.761719 0)"/>
     <use xlink:href="#DejaVuSans-Bold-62" transform="translate(376.953125 0)"/>
     <use xlink:href="#DejaVuSans-Bold-6f" transform="translate(448.535156 0)"/>
     <use xlink:href="#DejaVuSans-Bold-61" transform="translate(517.236328 0)"/>
     <use xlink:href="#DejaVuSans-Bold-72" transform="translate(584.716797 0)"/>
     <use xlink:href="#DejaVuSans-Bold-64" transform="translate(634.033203 0)"/>
    </g>
   </g>
   <g id="text_7">
    <!-- Tessie -->
    <g style="fill: #333333" transform="translate(217.997387 546.405866) scale(0.09 -0.09)">
     <defs>
      <path id="DejaVuSans-Bold-54" d="M 31 4666 
L 4331 4666 
L 4331 3756 
L 2784 3756 
L 2784 0 
L 1581 0 
L 1581 3756 
L 31 3756 
L 31 4666 
z
" transform="scale(0.015625)"/>
     </defs>
     <use xlink:href="#DejaVuSans-Bold-54"/>
     <use xlink:href="#DejaVuSans-Bold-65" transform="translate(54.962891 0)"/>
     <use xlink:href="#DejaVuSans-Bold-73" transform="translate(122.785156 0)"/>
     <use xlink:href="#DejaVuSans-Bold-73" transform="translate(182.306641 0)"/>
     <use xlink:href="#DejaVuSans-Bold-69" transform="translate(241.828125 0)"/>
     <use xlink:href="#DejaVuSans-Bold-65" transform="translate(276.105469 0)"/>
    </g>
   </g>
   <g id="text_8">
    <!-- Base Load -->
    <g transform="translate(82.980344 202.817354) scale(0.08 -0.08)">
     <use xlink:href="#DejaVuSans-Bold-42"/>
     <use xlink:href="#DejaVuSans-Bold-61" transform="translate(76.220703 0)"/>
     <use xlink:href="#DejaVuSans-Bold-73" transform="translate(143.701172 0)"/>
     <use xlink:href="#DejaVuSans-Bold-65" transform="translate(203.222656 0)"/>
     <use xlink:href="#DejaVuSans-Bold-20" transform="translate(271.044922 0)"/>
     <use xlink:href="#DejaVuSans-Bold-4c" transform="translate(305.859375 0)"/>
     <use xlink:href="#DejaVuSans-Bold-6f" transform="translate(369.580078 0)"/>
     <use xlink:href="#DejaVuSans-Bold-61" transform="translate(438.28125 0)"/>
     <use xlink:href="#DejaVuSans-Bold-64" transform="translate(505.761719 0)"/>
    </g>
    <!-- (node) -->
    <g transform="translate(91.245969 211.775604) scale(0.08 -0.08)">
     <defs>
      <path id="DejaVuSans-Bold-28" d="M 2413 -844 
L 1484 -844 
Q 1006 -72 778 623 
Q 550 1319 550 2003 
Q 550 2688 779 3389 
Q 1009 4091 1484 4856 
L 2413 4856 
Q 2013 4116 1813 3408 
Q 1613 2700 1613 2009 
Q 1613 1319 1811 609 
Q 2009 -100 2413 -844 
z
" transform="scale(0.015625)"/>
      <path id="DejaVuSans-Bold-29" d="M 513 -844 
Q 913 -100 1113 609 
Q 1313 1319 1313 2009 
Q 1313 2700 1113 3408 
Q 913 4116 513 4856 
L 1441 4856 
Q 1916 4091 2145 3389 
Q 2375 2688 2375 2003 
Q 2375 1319 2147 623 
Q 1919 -72 1441 -844 
L 513 -844 
z
" transform="scale(0.015625)"/>
     </defs>
     <use xlink:href="#DejaVuSans-Bold-28"/>
     <use xlink:href="#DejaVuSans-Bold-6e" transform="translate(45.703125 0)"/>
     <use xlink:href="#DejaVuSans-Bold-6f" transform="translate(116.894531 0)"/>
     <use xlink:href="#DejaVuSans-Bold-64" transform="translate(185.595703 0)"/>
     <use xlink:href="#DejaVuSans-Bold-65" transform="translate(257.177734 0)"/>
     <use xlink:href="#DejaVuSans-Bold-29" transform="translate(325 0)"/>
    </g>
   </g>
   <g id="text_9">
    <!-- Eq4800 -->
    <g transform="translate(612.396242 372.202752) scale(0.08 -0.08)">
     <use xlink:href="#DejaVuSans-Bold-45"/>
     <use xlink:href="#DejaVuSans-Bold-71" transform="translate(68.310547 0)"/>
     <use xlink:href="#DejaVuSans-Bold-34" transform="translate(139.892578 0)"/>
     <use xlink:href="#DejaVuSans-Bold-38" transform="translate(209.472656 0)"/>
     <use xlink:href="#DejaVuSans-Bold-30" transform="translate(279.052734 0)"/>
     <use xlink:href="#DejaVuSans-Bold-30" transform="translate(348.632812 0)"/>
    </g>
    <!-- (battery) -->
    <g transform="translate(608.788742 381.161002) scale(0.08 -0.08)">
     <use xlink:href="#DejaVuSans-Bold-28"/>
     <use xlink:href="#DejaVuSans-Bold-62" transform="translate(45.703125 0)"/>
     <use xlink:href="#DejaVuSans-Bold-61" transform="translate(117.285156 0)"/>
     <use xlink:href="#DejaVuSans-Bold-74" transform="translate(184.765625 0)"/>
     <use xlink:href="#DejaVuSans-Bold-74" transform="translate(232.568359 0)"/>
     <use xlink:href="#DejaVuSans-Bold-65" transform="translate(280.371094 0)"/>
     <use xlink:href="#DejaVuSans-Bold-72" transform="translate(348.193359 0)"/>
     <use xlink:href="#DejaVuSans-Bold-79" transform="translate(397.509766 0)"/>
     <use xlink:href="#DejaVuSans-Bold-29" transform="translate(462.695312 0)"/>
    </g>
   </g>
   <g id="text_10">
    <!-- Grid -->
    <g transform="translate(91.676395 428.522) scale(0.08 -0.08)">
     <use xlink:href="#DejaVuSans-Bold-47"/>
     <use xlink:href="#DejaVuSans-Bold-72" transform="translate(82.080078 0)"/>
     <use xlink:href="#DejaVuSans-Bold-69" transform="translate(131.396484 0)"/>
     <use xlink:href="#DejaVuSans-Bold-64" transform="translate(165.673828 0)"/>
    </g>
    <!-- (node) -->
    <g transform="translate(86.33827 437.48025) scale(0.08 -0.08)">
     <use xlink:href="#DejaVuSans-Bold-28"/>
     <use xlink:href="#DejaVuSans-Bold-6e" transform="translate(45.703125 0)"/>
     <use xlink:href="#DejaVuSans-Bold-6f" transform="translate(116.894531 0)"/>
     <use xlink:href="#DejaVuSans-Bold-64" transform="translate(185.595703 0)"/>
     <use xlink:href="#DejaVuSans-Bold-65" transform="translate(257.177734 0)"/>
     <use xlink:href="#DejaVuSans-Bold-29" transform="translate(325 0)"/>
    </g>
   </g>
   <g id="text_11">
    <!-- Inverter Primary -->
    <g transform="translate(435.51219 311.038496) scale(0.08 -0.08)">
     <use xlink:href="#DejaVuSans-Bold-49"/>
     <use xlink:href="#DejaVuSans-Bold-6e" transform="translate(37.207031 0)"/>
     <use xlink:href="#DejaVuSans-Bold-76" transform="translate(108.398438 0)"/>
     <use xlink:href="#DejaVuSans-Bold-65" transform="translate(173.583984 0)"/>
     <use xlink:href="#DejaVuSans-Bold-72" transform="translate(241.40625 0)"/>
     <use xlink:href="#DejaVuSans-Bold-74" transform="translate(290.722656 0)"/>
     <use xlink:href="#DejaVuSans-Bold-65" transform="translate(338.525391 0)"/>
     <use xlink:href="#DejaVuSans-Bold-72" transform="translate(406.347656 0)"/>
     <use xlink:href="#DejaVuSans-Bold-20" transform="translate(455.664062 0)"/>
     <use xlink:href="#DejaVuSans-Bold-50" transform="translate(490.478516 0)"/>
     <use xlink:href="#DejaVuSans-Bold-72" transform="translate(563.769531 0)"/>
     <use xlink:href="#DejaVuSans-Bold-69" transform="translate(613.085938 0)"/>
     <use xlink:href="#DejaVuSans-Bold-6d" transform="translate(647.363281 0)"/>
     <use xlink:href="#DejaVuSans-Bold-61" transform="translate(751.5625 0)"/>
     <use xlink:href="#DejaVuSans-Bold-72" transform="translate(819.042969 0)"/>
     <use xlink:href="#DejaVuSans-Bold-79" transform="translate(868.359375 0)"/>
    </g>
    <!-- (node) -->
    <g transform="translate(458.02594 320.059246) scale(0.08 -0.08)">
     <use xlink:href="#DejaVuSans-Bold-28"/>
     <use xlink:href="#DejaVuSans-Bold-6e" transform="translate(45.703125 0)"/>
     <use xlink:href="#DejaVuSans-Bold-6f" transform="translate(116.894531 0)"/>
     <use xlink:href="#DejaVuSans-Bold-64" transform="translate(185.595703 0)"/>
     <use xlink:href="#DejaVuSans-Bold-65" transform="translate(257.177734 0)"/>
     <use xlink:href="#DejaVuSans-Bold-29" transform="translate(325 0)"/>
    </g>
   </g>
   <g id="text_12">
    <!-- Pv -->
    <g transform="translate(607.185191 127.337548) scale(0.08 -0.08)">
     <use xlink:href="#DejaVuSans-Bold-50"/>
     <use xlink:href="#DejaVuSans-Bold-76" transform="translate(73.291016 0)"/>
    </g>
    <!-- (node) -->
    <g transform="translate(597.896441 136.295798) scale(0.08 -0.08)">
     <use xlink:href="#DejaVuSans-Bold-28"/>
     <use xlink:href="#DejaVuSans-Bold-6e" transform="translate(45.703125 0)"/>
     <use xlink:href="#DejaVuSans-Bold-6f" transform="translate(116.894531 0)"/>
     <use xlink:href="#DejaVuSans-Bold-64" transform="translate(185.595703 0)"/>
     <use xlink:href="#DejaVuSans-Bold-65" transform="translate(257.177734 0)"/>
     <use xlink:href="#DejaVuSans-Bold-29" transform="translate(325 0)"/>
    </g>
   </g>
   <g id="text_13">
    <!-- Switchboard -->
    <g transform="translate(232.142361 378.331929) scale(0.08 -0.08)">
     <use xlink:href="#DejaVuSans-Bold-53"/>
     <use xlink:href="#DejaVuSans-Bold-77" transform="translate(72.021484 0)"/>
     <use xlink:href="#DejaVuSans-Bold-69" transform="translate(164.404297 0)"/>
     <use xlink:href="#DejaVuSans-Bold-74" transform="translate(198.681641 0)"/>
     <use xlink:href="#DejaVuSans-Bold-63" transform="translate(246.484375 0)"/>
     <use xlink:href="#DejaVuSans-Bold-68" transform="translate(305.761719 0)"/>
     <use xlink:href="#DejaVuSans-Bold-62" transform="translate(376.953125 0)"/>
     <use xlink:href="#DejaVuSans-Bold-6f" transform="translate(448.535156 0)"/>
     <use xlink:href="#DejaVuSans-Bold-61" transform="translate(517.236328 0)"/>
     <use xlink:href="#DejaVuSans-Bold-72" transform="translate(584.716797 0)"/>
     <use xlink:href="#DejaVuSans-Bold-64" transform="translate(634.033203 0)"/>
    </g>
    <!-- (node) -->
    <g transform="translate(245.538611 387.290179) scale(0.08 -0.08)">
     <use xlink:href="#DejaVuSans-Bold-28"/>
     <use xlink:href="#DejaVuSans-Bold-6e" transform="translate(45.703125 0)"/>
     <use xlink:href="#DejaVuSans-Bold-6f" transform="translate(116.894531 0)"/>
     <use xlink:href="#DejaVuSans-Bold-64" transform="translate(185.595703 0)"/>
     <use xlink:href="#DejaVuSans-Bold-65" transform="translate(257.177734 0)"/>
     <use xlink:href="#DejaVuSans-Bold-29" transform="translate(325 0)"/>
    </g>
   </g>
   <g id="text_14">
    <!-- Tessie -->
    <g transform="translate(219.717074 611.394827) scale(0.08 -0.08)">
     <use xlink:href="#DejaVuSans-Bold-54"/>
     <use xlink:href="#DejaVuSans-Bold-65" transform="translate(54.962891 0)"/>
     <use xlink:href="#DejaVuSans-Bold-73" transform="translate(122.785156 0)"/>
     <use xlink:href="#DejaVuSans-Bold-73" transform="translate(182.306641 0)"/>
     <use xlink:href="#DejaVuSans-Bold-69" transform="translate(241.828125 0)"/>
     <use xlink:href="#DejaVuSans-Bold-65" transform="translate(276.105469 0)"/>
    </g>
    <!-- (node) -->
    <g transform="translate(218.646449 620.353077) scale(0.08 -0.08)">
     <use xlink:href="#DejaVuSans-Bold-28"/>
     <use xlink:href="#DejaVuSans-Bold-6e" transform="translate(45.703125 0)"/>
     <use xlink:href="#DejaVuSans-Bold-6f" transform="translate(116.894531 0)"/>
     <use xlink:href="#DejaVuSans-Bold-64" transform="translate(185.595703 0)"/>
     <use xlink:href="#DejaVuSans-Bold-65" transform="translate(257.177734 0)"/>
     <use xlink:href="#DejaVuSans-Bold-29" transform="translate(325 0)"/>
    </g>
   </g>
   <g id="text_15">
    <g id="patch_25">
     <path d="M 534.42781 351.109718 
L 567.550622 351.109718 
Q 568.450622 351.109718 568.450622 350.209718 
L 568.450622 337.590405 
Q 568.450622 336.690405 567.550622 336.690405 
L 534.42781 336.690405 
Q 533.52781 336.690405 533.52781 337.590405 
L 533.52781 350.209718 
Q 533.52781 351.109718 534.42781 351.109718 
z
" style="fill: #ffffff; opacity: 0.9"/>
    </g>
    <!-- discharge -->
    <g style="fill: #333333" transform="translate(534.42781 342.196343) scale(0.06 -0.06)">
     <defs>
      <path id="DejaVuSans-Bold-67" d="M 2919 594 
Q 2688 288 2409 144 
Q 2131 0 1766 0 
Q 1125 0 706 504 
Q 288 1009 288 1791 
Q 288 2575 706 3076 
Q 1125 3578 1766 3578 
Q 2131 3578 2409 3434 
Q 2688 3291 2919 2981 
L 2919 3500 
L 4044 3500 
L 4044 353 
Q 4044 -491 3511 -936 
Q 2978 -1381 1966 -1381 
Q 1638 -1381 1331 -1331 
Q 1025 -1281 716 -1178 
L 716 -306 
Q 1009 -475 1290 -558 
Q 1572 -641 1856 -641 
Q 2406 -641 2662 -400 
Q 2919 -159 2919 353 
L 2919 594 
z
M 2181 2772 
Q 1834 2772 1640 2515 
Q 1447 2259 1447 1791 
Q 1447 1309 1634 1061 
Q 1822 813 2181 813 
Q 2531 813 2725 1069 
Q 2919 1325 2919 1791 
Q 2919 2259 2725 2515 
Q 2531 2772 2181 2772 
z
" transform="scale(0.015625)"/>
     </defs>
     <use xlink:href="#DejaVuSans-Bold-64"/>
     <use xlink:href="#DejaVuSans-Bold-69" transform="translate(71.582031 0)"/>
     <use xlink:href="#DejaVuSans-Bold-73" transform="translate(105.859375 0)"/>
     <use xlink:href="#DejaVuSans-Bold-63" transform="translate(165.380859 0)"/>
     <use xlink:href="#DejaVuSans-Bold-68" transform="translate(224.658203 0)"/>
     <use xlink:href="#DejaVuSans-Bold-61" transform="translate(295.849609 0)"/>
     <use xlink:href="#DejaVuSans-Bold-72" transform="translate(363.330078 0)"/>
     <use xlink:href="#DejaVuSans-Bold-67" transform="translate(412.646484 0)"/>
     <use xlink:href="#DejaVuSans-Bold-65" transform="translate(484.228516 0)"/>
    </g>
    <!-- (power) -->
    <g style="fill: #333333" transform="translate(537.752653 348.961905) scale(0.06 -0.06)">
     <defs>
      <path id="DejaVuSans-Bold-70" d="M 1656 506 
L 1656 -1331 
L 538 -1331 
L 538 3500 
L 1656 3500 
L 1656 2988 
Q 1888 3294 2169 3439 
Q 2450 3584 2816 3584 
Q 3463 3584 3878 3070 
Q 4294 2556 4294 1747 
Q 4294 938 3878 423 
Q 3463 -91 2816 -91 
Q 2450 -91 2169 54 
Q 1888 200 1656 506 
z
M 2400 2772 
Q 2041 2772 1848 2508 
Q 1656 2244 1656 1747 
Q 1656 1250 1848 986 
Q 2041 722 2400 722 
Q 2759 722 2948 984 
Q 3138 1247 3138 1747 
Q 3138 2247 2948 2509 
Q 2759 2772 2400 2772 
z
" transform="scale(0.015625)"/>
     </defs>
     <use xlink:href="#DejaVuSans-Bold-28"/>
     <use xlink:href="#DejaVuSans-Bold-70" transform="translate(45.703125 0)"/>
     <use xlink:href="#DejaVuSans-Bold-6f" transform="translate(117.285156 0)"/>
     <use xlink:href="#DejaVuSans-Bold-77" transform="translate(185.986328 0)"/>
     <use xlink:href="#DejaVuSans-Bold-65" transform="translate(278.369141 0)"/>
     <use xlink:href="#DejaVuSans-Bold-72" transform="translate(346.191406 0)"/>
     <use xlink:href="#DejaVuSans-Bold-29" transform="translate(395.507812 0)"/>
    </g>
   </g>
   <g id="text_16">
    <g id="patch_26">
     <path d="M 167.530003 412.861371 
L 194.003128 412.861371 
Q 194.903128 412.861371 194.903128 411.961371 
L 194.903128 399.435808 
Q 194.903128 398.535808 194.003128 398.535808 
L 167.530003 398.535808 
Q 166.630003 398.535808 166.630003 399.435808 
L 166.630003 411.961371 
Q 166.630003 412.861371 167.530003 412.861371 
z
" style="fill: #ffffff; opacity: 0.9"/>
    </g>
    <!-- import -->
    <g style="fill: #333333" transform="translate(169.490316 403.994871) scale(0.06 -0.06)">
     <use xlink:href="#DejaVuSans-Bold-69"/>
     <use xlink:href="#DejaVuSans-Bold-6d" transform="translate(34.277344 0)"/>
     <use xlink:href="#DejaVuSans-Bold-70" transform="translate(138.476562 0)"/>
     <use xlink:href="#DejaVuSans-Bold-6f" transform="translate(210.058594 0)"/>
     <use xlink:href="#DejaVuSans-Bold-72" transform="translate(278.759766 0)"/>
     <use xlink:href="#DejaVuSans-Bold-74" transform="translate(328.076172 0)"/>
    </g>
    <!-- (power) -->
    <g style="fill: #333333" transform="translate(167.530003 410.713558) scale(0.06 -0.06)">
     <use xlink:href="#DejaVuSans-Bold-28"/>
     <use xlink:href="#DejaVuSans-Bold-70" transform="translate(45.703125 0)"/>
     <use xlink:href="#DejaVuSans-Bold-6f" transform="translate(117.285156 0)"/>
     <use xlink:href="#DejaVuSans-Bold-77" transform="translate(185.986328 0)"/>
     <use xlink:href="#DejaVuSans-Bold-65" transform="translate(278.369141 0)"/>
     <use xlink:href="#DejaVuSans-Bold-72" transform="translate(346.191406 0)"/>
     <use xlink:href="#DejaVuSans-Bold-29" transform="translate(395.507812 0)"/>
    </g>
   </g>
   <g id="text_17">
    <g id="patch_27">
     <path d="M 537.752653 351.109718 
L 564.225778 351.109718 
Q 565.125778 351.109718 565.125778 350.209718 
L 565.125778 337.590405 
Q 565.125778 336.690405 564.225778 336.690405 
L 537.752653 336.690405 
Q 536.852653 336.690405 536.852653 337.590405 
L 536.852653 350.209718 
Q 536.852653 351.109718 537.752653 351.109718 
z
" style="fill: #ffffff; opacity: 0.9"/>
    </g>
    <!-- charge -->
    <g style="fill: #333333" transform="translate(539.38906 342.196343) scale(0.06 -0.06)">
     <use xlink:href="#DejaVuSans-Bold-63"/>
     <use xlink:href="#DejaVuSans-Bold-68" transform="translate(59.277344 0)"/>
     <use xlink:href="#DejaVuSans-Bold-61" transform="translate(130.46875 0)"/>
     <use xlink:href="#DejaVuSans-Bold-72" transform="translate(197.949219 0)"/>
     <use xlink:href="#DejaVuSans-Bold-67" transform="translate(247.265625 0)"/>
     <use xlink:href="#DejaVuSans-Bold-65" transform="translate(318.847656 0)"/>
    </g>
    <!-- (power) -->
    <g style="fill: #333333" transform="translate(537.752653 348.961905) scale(0.06 -0.06)">
     <use xlink:href="#DejaVuSans-Bold-28"/>
     <use xlink:href="#DejaVuSans-Bold-70" transform="translate(45.703125 0)"/>
     <use xlink:href="#DejaVuSans-Bold-6f" transform="translate(117.285156 0)"/>
     <use xlink:href="#DejaVuSans-Bold-77" transform="translate(185.986328 0)"/>
     <use xlink:href="#DejaVuSans-Bold-65" transform="translate(278.369141 0)"/>
     <use xlink:href="#DejaVuSans-Bold-72" transform="translate(346.191406 0)"/>
     <use xlink:href="#DejaVuSans-Bold-29" transform="translate(395.507812 0)"/>
    </g>
   </g>
   <g id="text_18">
    <g id="patch_28">
     <path d="M 352.38665 354.218681 
L 380.83415 354.218681 
Q 381.73415 354.218681 381.73415 353.318681 
L 381.73415 340.459369 
Q 381.73415 339.559369 380.83415 339.559369 
L 352.38665 339.559369 
Q 351.48665 339.559369 351.48665 340.459369 
L 351.48665 353.318681 
Q 351.48665 354.218681 352.38665 354.218681 
z
" style="fill: #ffffff; opacity: 0.9"/>
    </g>
    <!-- dc_to_ac -->
    <g style="fill: #333333" transform="translate(352.38665 345.185306) scale(0.06 -0.06)">
     <defs>
      <path id="DejaVuSans-Bold-5f" d="M 3200 -916 
L 3200 -1509 
L 0 -1509 
L 0 -916 
L 3200 -916 
z
" transform="scale(0.015625)"/>
     </defs>
     <use xlink:href="#DejaVuSans-Bold-64"/>
     <use xlink:href="#DejaVuSans-Bold-63" transform="translate(71.582031 0)"/>
     <use xlink:href="#DejaVuSans-Bold-5f" transform="translate(130.859375 0)"/>
     <use xlink:href="#DejaVuSans-Bold-74" transform="translate(180.859375 0)"/>
     <use xlink:href="#DejaVuSans-Bold-6f" transform="translate(228.662109 0)"/>
     <use xlink:href="#DejaVuSans-Bold-5f" transform="translate(297.363281 0)"/>
     <use xlink:href="#DejaVuSans-Bold-61" transform="translate(347.363281 0)"/>
     <use xlink:href="#DejaVuSans-Bold-63" transform="translate(414.84375 0)"/>
    </g>
    <!-- (power) -->
    <g style="fill: #333333" transform="translate(353.373838 352.070869) scale(0.06 -0.06)">
     <use xlink:href="#DejaVuSans-Bold-28"/>
     <use xlink:href="#DejaVuSans-Bold-70" transform="translate(45.703125 0)"/>
     <use xlink:href="#DejaVuSans-Bold-6f" transform="translate(117.285156 0)"/>
     <use xlink:href="#DejaVuSans-Bold-77" transform="translate(185.986328 0)"/>
     <use xlink:href="#DejaVuSans-Bold-65" transform="translate(278.369141 0)"/>
     <use xlink:href="#DejaVuSans-Bold-72" transform="translate(346.191406 0)"/>
     <use xlink:href="#DejaVuSans-Bold-29" transform="translate(395.507812 0)"/>
    </g>
   </g>
   <g id="text_19">
    <g id="patch_29">
     <path d="M 524.206191 228.638053 
L 561.372441 228.638053 
Q 562.272441 228.638053 562.272441 227.738053 
L 562.272441 215.212491 
Q 562.272441 214.312491 561.372441 214.312491 
L 524.206191 214.312491 
Q 523.306191 214.312491 523.306191 215.212491 
L 523.306191 227.738053 
Q 523.306191 228.638053 524.206191 228.638053 
z
" style="fill: #ffffff; opacity: 0.9"/>
    </g>
    <!-- connection -->
    <g style="fill: #333333" transform="translate(524.206191 219.771553) scale(0.06 -0.06)">
     <use xlink:href="#DejaVuSans-Bold-63"/>
     <use xlink:href="#DejaVuSans-Bold-6f" transform="translate(59.277344 0)"/>
     <use xlink:href="#DejaVuSans-Bold-6e" transform="translate(127.978516 0)"/>
     <use xlink:href="#DejaVuSans-Bold-6e" transform="translate(199.169922 0)"/>
     <use xlink:href="#DejaVuSans-Bold-65" transform="translate(270.361328 0)"/>
     <use xlink:href="#DejaVuSans-Bold-63" transform="translate(338.183594 0)"/>
     <use xlink:href="#DejaVuSans-Bold-74" transform="translate(397.460938 0)"/>
     <use xlink:href="#DejaVuSans-Bold-69" transform="translate(445.263672 0)"/>
     <use xlink:href="#DejaVuSans-Bold-6f" transform="translate(479.541016 0)"/>
     <use xlink:href="#DejaVuSans-Bold-6e" transform="translate(548.242188 0)"/>
    </g>
    <!-- (power) -->
    <g style="fill: #333333" transform="translate(529.552753 226.490241) scale(0.06 -0.06)">
     <use xlink:href="#DejaVuSans-Bold-28"/>
     <use xlink:href="#DejaVuSans-Bold-70" transform="translate(45.703125 0)"/>
     <use xlink:href="#DejaVuSans-Bold-6f" transform="translate(117.285156 0)"/>
     <use xlink:href="#DejaVuSans-Bold-77" transform="translate(185.986328 0)"/>
     <use xlink:href="#DejaVuSans-Bold-65" transform="translate(278.369141 0)"/>
     <use xlink:href="#DejaVuSans-Bold-72" transform="translate(346.191406 0)"/>
     <use xlink:href="#DejaVuSans-Bold-29" transform="translate(395.507812 0)"/>
    </g>
   </g>
   <g id="text_20">
    <g id="patch_30">
     <path d="M 164.63729 300.009048 
L 201.80354 300.009048 
Q 202.70354 300.009048 202.70354 299.109048 
L 202.70354 286.583485 
Q 202.70354 285.683485 201.80354 285.683485 
L 164.63729 285.683485 
Q 163.73729 285.683485 163.73729 286.583485 
L 163.73729 299.109048 
Q 163.73729 300.009048 164.63729 300.009048 
z
" style="fill: #ffffff; opacity: 0.9"/>
    </g>
    <!-- connection -->
    <g style="fill: #333333" transform="translate(164.63729 291.142548) scale(0.06 -0.06)">
     <use xlink:href="#DejaVuSans-Bold-63"/>
     <use xlink:href="#DejaVuSans-Bold-6f" transform="translate(59.277344 0)"/>
     <use xlink:href="#DejaVuSans-Bold-6e" transform="translate(127.978516 0)"/>
     <use xlink:href="#DejaVuSans-Bold-6e" transform="translate(199.169922 0)"/>
     <use xlink:href="#DejaVuSans-Bold-65" transform="translate(270.361328 0)"/>
     <use xlink:href="#DejaVuSans-Bold-63" transform="translate(338.183594 0)"/>
     <use xlink:href="#DejaVuSans-Bold-74" transform="translate(397.460938 0)"/>
     <use xlink:href="#DejaVuSans-Bold-69" transform="translate(445.263672 0)"/>
     <use xlink:href="#DejaVuSans-Bold-6f" transform="translate(479.541016 0)"/>
     <use xlink:href="#DejaVuSans-Bold-6e" transform="translate(548.242188 0)"/>
    </g>
    <!-- (power) -->
    <g style="fill: #333333" transform="translate(169.983852 297.861235) scale(0.06 -0.06)">
     <use xlink:href="#DejaVuSans-Bold-28"/>
     <use xlink:href="#DejaVuSans-Bold-70" transform="translate(45.703125 0)"/>
     <use xlink:href="#DejaVuSans-Bold-6f" transform="translate(117.285156 0)"/>
     <use xlink:href="#DejaVuSans-Bold-77" transform="translate(185.986328 0)"/>
     <use xlink:href="#DejaVuSans-Bold-65" transform="translate(278.369141 0)"/>
     <use xlink:href="#DejaVuSans-Bold-72" transform="translate(346.191406 0)"/>
     <use xlink:href="#DejaVuSans-Bold-29" transform="translate(395.507812 0)"/>
    </g>
   </g>
   <g id="text_21">
    <g id="patch_31">
     <path d="M 167.530003 412.861371 
L 194.003128 412.861371 
Q 194.903128 412.861371 194.903128 411.961371 
L 194.903128 399.435808 
Q 194.903128 398.535808 194.003128 398.535808 
L 167.530003 398.535808 
Q 166.630003 398.535808 166.630003 399.435808 
L 166.630003 411.961371 
Q 166.630003 412.861371 167.530003 412.861371 
z
" style="fill: #ffffff; opacity: 0.9"/>
    </g>
    <!-- export -->
    <g style="fill: #333333" transform="translate(169.675003 403.994871) scale(0.06 -0.06)">
     <defs>
      <path id="DejaVuSans-Bold-78" d="M 1422 1791 
L 159 3500 
L 1344 3500 
L 2059 2463 
L 2784 3500 
L 3969 3500 
L 2706 1797 
L 4031 0 
L 2847 0 
L 2059 1106 
L 1281 0 
L 97 0 
L 1422 1791 
z
" transform="scale(0.015625)"/>
     </defs>
     <use xlink:href="#DejaVuSans-Bold-65"/>
     <use xlink:href="#DejaVuSans-Bold-78" transform="translate(67.822266 0)"/>
     <use xlink:href="#DejaVuSans-Bold-70" transform="translate(132.324219 0)"/>
     <use xlink:href="#DejaVuSans-Bold-6f" transform="translate(203.90625 0)"/>
     <use xlink:href="#DejaVuSans-Bold-72" transform="translate(272.607422 0)"/>
     <use xlink:href="#DejaVuSans-Bold-74" transform="translate(321.923828 0)"/>
    </g>
    <!-- (power) -->
    <g style="fill: #333333" transform="translate(167.530003 410.713558) scale(0.06 -0.06)">
     <use xlink:href="#DejaVuSans-Bold-28"/>
     <use xlink:href="#DejaVuSans-Bold-70" transform="translate(45.703125 0)"/>
     <use xlink:href="#DejaVuSans-Bold-6f" transform="translate(117.285156 0)"/>
     <use xlink:href="#DejaVuSans-Bold-77" transform="translate(185.986328 0)"/>
     <use xlink:href="#DejaVuSans-Bold-65" transform="translate(278.369141 0)"/>
     <use xlink:href="#DejaVuSans-Bold-72" transform="translate(346.191406 0)"/>
     <use xlink:href="#DejaVuSans-Bold-29" transform="translate(395.507812 0)"/>
    </g>
   </g>
   <g id="text_22">
    <g id="patch_32">
     <path d="M 352.38665 354.218681 
L 380.83415 354.218681 
Q 381.73415 354.218681 381.73415 353.318681 
L 381.73415 340.459369 
Q 381.73415 339.559369 380.83415 339.559369 
L 352.38665 339.559369 
Q 351.48665 339.559369 351.48665 340.459369 
L 351.48665 353.318681 
Q 351.48665 354.218681 352.38665 354.218681 
z
" style="fill: #ffffff; opacity: 0.9"/>
    </g>
    <!-- ac_to_dc -->
    <g style="fill: #333333" transform="translate(352.38665 345.185306) scale(0.06 -0.06)">
     <use xlink:href="#DejaVuSans-Bold-61"/>
     <use xlink:href="#DejaVuSans-Bold-63" transform="translate(67.480469 0)"/>
     <use xlink:href="#DejaVuSans-Bold-5f" transform="translate(126.757812 0)"/>
     <use xlink:href="#DejaVuSans-Bold-74" transform="translate(176.757812 0)"/>
     <use xlink:href="#DejaVuSans-Bold-6f" transform="translate(224.560547 0)"/>
     <use xlink:href="#DejaVuSans-Bold-5f" transform="translate(293.261719 0)"/>
     <use xlink:href="#DejaVuSans-Bold-64" transform="translate(343.261719 0)"/>
     <use xlink:href="#DejaVuSans-Bold-63" transform="translate(414.84375 0)"/>
    </g>
    <!-- (power) -->
    <g style="fill: #333333" transform="translate(353.373838 352.070869) scale(0.06 -0.06)">
     <use xlink:href="#DejaVuSans-Bold-28"/>
     <use xlink:href="#DejaVuSans-Bold-70" transform="translate(45.703125 0)"/>
     <use xlink:href="#DejaVuSans-Bold-6f" transform="translate(117.285156 0)"/>
     <use xlink:href="#DejaVuSans-Bold-77" transform="translate(185.986328 0)"/>
     <use xlink:href="#DejaVuSans-Bold-65" transform="translate(278.369141 0)"/>
     <use xlink:href="#DejaVuSans-Bold-72" transform="translate(346.191406 0)"/>
     <use xlink:href="#DejaVuSans-Bold-29" transform="translate(395.507812 0)"/>
    </g>
   </g>
   <g id="text_23">
    <g id="patch_33">
     <path d="M 228.33753 504.297784 
L 265.50378 504.297784 
Q 266.40378 504.297784 266.40378 503.397784 
L 266.40378 490.872222 
Q 266.40378 489.972222 265.50378 489.972222 
L 228.33753 489.972222 
Q 227.43753 489.972222 227.43753 490.872222 
L 227.43753 503.397784 
Q 227.43753 504.297784 228.33753 504.297784 
z
" style="fill: #ffffff; opacity: 0.9"/>
    </g>
    <!-- connection -->
    <g style="fill: #333333" transform="translate(228.33753 495.431284) scale(0.06 -0.06)">
     <use xlink:href="#DejaVuSans-Bold-63"/>
     <use xlink:href="#DejaVuSans-Bold-6f" transform="translate(59.277344 0)"/>
     <use xlink:href="#DejaVuSans-Bold-6e" transform="translate(127.978516 0)"/>
     <use xlink:href="#DejaVuSans-Bold-6e" transform="translate(199.169922 0)"/>
     <use xlink:href="#DejaVuSans-Bold-65" transform="translate(270.361328 0)"/>
     <use xlink:href="#DejaVuSans-Bold-63" transform="translate(338.183594 0)"/>
     <use xlink:href="#DejaVuSans-Bold-74" transform="translate(397.460938 0)"/>
     <use xlink:href="#DejaVuSans-Bold-69" transform="translate(445.263672 0)"/>
     <use xlink:href="#DejaVuSans-Bold-6f" transform="translate(479.541016 0)"/>
     <use xlink:href="#DejaVuSans-Bold-6e" transform="translate(548.242188 0)"/>
    </g>
    <!-- (power) -->
    <g style="fill: #333333" transform="translate(233.684093 502.149972) scale(0.06 -0.06)">
     <use xlink:href="#DejaVuSans-Bold-28"/>
     <use xlink:href="#DejaVuSans-Bold-70" transform="translate(45.703125 0)"/>
     <use xlink:href="#DejaVuSans-Bold-6f" transform="translate(117.285156 0)"/>
     <use xlink:href="#DejaVuSans-Bold-77" transform="translate(185.986328 0)"/>
     <use xlink:href="#DejaVuSans-Bold-65" transform="translate(278.369141 0)"/>
     <use xlink:href="#DejaVuSans-Bold-72" transform="translate(346.191406 0)"/>
     <use xlink:href="#DejaVuSans-Bold-29" transform="translate(395.507812 0)"/>
    </g>
   </g>
   <g id="text_24">
    <!-- 20260329-174422-72H-Horizon-Test Network Topology -->
    <g transform="translate(174.0246 17.837813) scale(0.14 -0.14)">
     <defs>
      <path id="DejaVuSans-32" d="M 1228 531 
L 3431 531 
L 3431 0 
L 469 0 
L 469 531 
Q 828 903 1448 1529 
Q 2069 2156 2228 2338 
Q 2531 2678 2651 2914 
Q 2772 3150 2772 3378 
Q 2772 3750 2511 3984 
Q 2250 4219 1831 4219 
Q 1534 4219 1204 4116 
Q 875 4013 500 3803 
L 500 4441 
Q 881 4594 1212 4672 
Q 1544 4750 1819 4750 
Q 2544 4750 2975 4387 
Q 3406 4025 3406 3419 
Q 3406 3131 3298 2873 
Q 3191 2616 2906 2266 
Q 2828 2175 2409 1742 
Q 1991 1309 1228 531 
z
" transform="scale(0.015625)"/>
      <path id="DejaVuSans-30" d="M 2034 4250 
Q 1547 4250 1301 3770 
Q 1056 3291 1056 2328 
Q 1056 1369 1301 889 
Q 1547 409 2034 409 
Q 2525 409 2770 889 
Q 3016 1369 3016 2328 
Q 3016 3291 2770 3770 
Q 2525 4250 2034 4250 
z
M 2034 4750 
Q 2819 4750 3233 4129 
Q 3647 3509 3647 2328 
Q 3647 1150 3233 529 
Q 2819 -91 2034 -91 
Q 1250 -91 836 529 
Q 422 1150 422 2328 
Q 422 3509 836 4129 
Q 1250 4750 2034 4750 
z
" transform="scale(0.015625)"/>
      <path id="DejaVuSans-36" d="M 2113 2584 
Q 1688 2584 1439 2293 
Q 1191 2003 1191 1497 
Q 1191 994 1439 701 
Q 1688 409 2113 409 
Q 2538 409 2786 701 
Q 3034 994 3034 1497 
Q 3034 2003 2786 2293 
Q 2538 2584 2113 2584 
z
M 3366 4563 
L 3366 3988 
Q 3128 4100 2886 4159 
Q 2644 4219 2406 4219 
Q 1781 4219 1451 3797 
Q 1122 3375 1075 2522 
Q 1259 2794 1537 2939 
Q 1816 3084 2150 3084 
Q 2853 3084 3261 2657 
Q 3669 2231 3669 1497 
Q 3669 778 3244 343 
Q 2819 -91 2113 -91 
Q 1303 -91 875 529 
Q 447 1150 447 2328 
Q 447 3434 972 4092 
Q 1497 4750 2381 4750 
Q 2619 4750 2861 4703 
Q 3103 4656 3366 4563 
z
" transform="scale(0.015625)"/>
      <path id="DejaVuSans-33" d="M 2597 2516 
Q 3050 2419 3304 2112 
Q 3559 1806 3559 1356 
Q 3559 666 3084 287 
Q 2609 -91 1734 -91 
Q 1441 -91 1130 -33 
Q 819 25 488 141 
L 488 750 
Q 750 597 1062 519 
Q 1375 441 1716 441 
Q 2309 441 2620 675 
Q 2931 909 2931 1356 
Q 2931 1769 2642 2001 
Q 2353 2234 1838 2234 
L 1294 2234 
L 1294 2753 
L 1863 2753 
Q 2328 2753 2575 2939 
Q 2822 3125 2822 3475 
Q 2822 3834 2567 4026 
Q 2313 4219 1838 4219 
Q 1578 4219 1281 4162 
Q 984 4106 628 3988 
L 628 4550 
Q 988 4650 1302 4700 
Q 1616 4750 1894 4750 
Q 2613 4750 3031 4423 
Q 3450 4097 3450 3541 
Q 3450 3153 3228 2886 
Q 3006 2619 2597 2516 
z
" transform="scale(0.015625)"/>
      <path id="DejaVuSans-39" d="M 703 97 
L 703 672 
Q 941 559 1184 500 
Q 1428 441 1663 441 
Q 2288 441 2617 861 
Q 2947 1281 2994 2138 
Q 2813 1869 2534 1725 
Q 2256 1581 1919 1581 
Q 1219 1581 811 2004 
Q 403 2428 403 3163 
Q 403 3881 828 4315 
Q 1253 4750 1959 4750 
Q 2769 4750 3195 4129 
Q 3622 3509 3622 2328 
Q 3622 1225 3098 567 
Q 2575 -91 1691 -91 
Q 1453 -91 1209 -44 
Q 966 3 703 97 
z
M 1959 2075 
Q 2384 2075 2632 2365 
Q 2881 2656 2881 3163 
Q 2881 3666 2632 3958 
Q 2384 4250 1959 4250 
Q 1534 4250 1286 3958 
Q 1038 3666 1038 3163 
Q 1038 2656 1286 2365 
Q 1534 2075 1959 2075 
z
" transform="scale(0.015625)"/>
      <path id="DejaVuSans-2d" d="M 313 2009 
L 1997 2009 
L 1997 1497 
L 313 1497 
L 313 2009 
z
" transform="scale(0.015625)"/>
      <path id="DejaVuSans-31" d="M 794 531 
L 1825 531 
L 1825 4091 
L 703 3866 
L 703 4441 
L 1819 4666 
L 2450 4666 
L 2450 531 
L 3481 531 
L 3481 0 
L 794 0 
L 794 531 
z
" transform="scale(0.015625)"/>
      <path id="DejaVuSans-37" d="M 525 4666 
L 3525 4666 
L 3525 4397 
L 1831 0 
L 1172 0 
L 2766 4134 
L 525 4134 
L 525 4666 
z
" transform="scale(0.015625)"/>
      <path id="DejaVuSans-34" d="M 2419 4116 
L 825 1625 
L 2419 1625 
L 2419 4116 
z
M 2253 4666 
L 3047 4666 
L 3047 1625 
L 3713 1625 
L 3713 1100 
L 3047 1100 
L 3047 0 
L 2419 0 
L 2419 1100 
L 313 1100 
L 313 1709 
L 2253 4666 
z
" transform="scale(0.015625)"/>
      <path id="DejaVuSans-48" d="M 628 4666 
L 1259 4666 
L 1259 2753 
L 3553 2753 
L 3553 4666 
L 4184 4666 
L 4184 0 
L 3553 0 
L 3553 2222 
L 1259 2222 
L 1259 0 
L 628 0 
L 628 4666 
z
" transform="scale(0.015625)"/>
      <path id="DejaVuSans-6f" d="M 1959 3097 
Q 1497 3097 1228 2736 
Q 959 2375 959 1747 
Q 959 1119 1226 758 
Q 1494 397 1959 397 
Q 2419 397 2687 759 
Q 2956 1122 2956 1747 
Q 2956 2369 2687 2733 
Q 2419 3097 1959 3097 
z
M 1959 3584 
Q 2709 3584 3137 3096 
Q 3566 2609 3566 1747 
Q 3566 888 3137 398 
Q 2709 -91 1959 -91 
Q 1206 -91 779 398 
Q 353 888 353 1747 
Q 353 2609 779 3096 
Q 1206 3584 1959 3584 
z
" transform="scale(0.015625)"/>
      <path id="DejaVuSans-72" d="M 2631 2963 
Q 2534 3019 2420 3045 
Q 2306 3072 2169 3072 
Q 1681 3072 1420 2755 
Q 1159 2438 1159 1844 
L 1159 0 
L 581 0 
L 581 3500 
L 1159 3500 
L 1159 2956 
Q 1341 3275 1631 3429 
Q 1922 3584 2338 3584 
Q 2397 3584 2469 3576 
Q 2541 3569 2628 3553 
L 2631 2963 
z
" transform="scale(0.015625)"/>
      <path id="DejaVuSans-69" d="M 603 3500 
L 1178 3500 
L 1178 0 
L 603 0 
L 603 3500 
z
M 603 4863 
L 1178 4863 
L 1178 4134 
L 603 4134 
L 603 4863 
z
" transform="scale(0.015625)"/>
      <path id="DejaVuSans-7a" d="M 353 3500 
L 3084 3500 
L 3084 2975 
L 922 459 
L 3084 459 
L 3084 0 
L 275 0 
L 275 525 
L 2438 3041 
L 353 3041 
L 353 3500 
z
" transform="scale(0.015625)"/>
      <path id="DejaVuSans-6e" d="M 3513 2113 
L 3513 0 
L 2938 0 
L 2938 2094 
Q 2938 2591 2744 2837 
Q 2550 3084 2163 3084 
Q 1697 3084 1428 2787 
Q 1159 2491 1159 1978 
L 1159 0 
L 581 0 
L 581 3500 
L 1159 3500 
L 1159 2956 
Q 1366 3272 1645 3428 
Q 1925 3584 2291 3584 
Q 2894 3584 3203 3211 
Q 3513 2838 3513 2113 
z
" transform="scale(0.015625)"/>
      <path id="DejaVuSans-54" d="M -19 4666 
L 3928 4666 
L 3928 4134 
L 2272 4134 
L 2272 0 
L 1638 0 
L 1638 4134 
L -19 4134 
L -19 4666 
z
" transform="scale(0.015625)"/>
      <path id="DejaVuSans-65" d="M 3597 1894 
L 3597 1613 
L 953 1613 
Q 991 1019 1311 708 
Q 1631 397 2203 397 
Q 2534 397 2845 478 
Q 3156 559 3463 722 
L 3463 178 
Q 3153 47 2828 -22 
Q 2503 -91 2169 -91 
Q 1331 -91 842 396 
Q 353 884 353 1716 
Q 353 2575 817 3079 
Q 1281 3584 2069 3584 
Q 2775 3584 3186 3129 
Q 3597 2675 3597 1894 
z
M 3022 2063 
Q 3016 2534 2758 2815 
Q 2500 3097 2075 3097 
Q 1594 3097 1305 2825 
Q 1016 2553 972 2059 
L 3022 2063 
z
" transform="scale(0.015625)"/>
      <path id="DejaVuSans-73" d="M 2834 3397 
L 2834 2853 
Q 2591 2978 2328 3040 
Q 2066 3103 1784 3103 
Q 1356 3103 1142 2972 
Q 928 2841 928 2578 
Q 928 2378 1081 2264 
Q 1234 2150 1697 2047 
L 1894 2003 
Q 2506 1872 2764 1633 
Q 3022 1394 3022 966 
Q 3022 478 2636 193 
Q 2250 -91 1575 -91 
Q 1294 -91 989 -36 
Q 684 19 347 128 
L 347 722 
Q 666 556 975 473 
Q 1284 391 1588 391 
Q 1994 391 2212 530 
Q 2431 669 2431 922 
Q 2431 1156 2273 1281 
Q 2116 1406 1581 1522 
L 1381 1569 
Q 847 1681 609 1914 
Q 372 2147 372 2553 
Q 372 3047 722 3315 
Q 1072 3584 1716 3584 
Q 2034 3584 2315 3537 
Q 2597 3491 2834 3397 
z
" transform="scale(0.015625)"/>
      <path id="DejaVuSans-74" d="M 1172 4494 
L 1172 3500 
L 2356 3500 
L 2356 3053 
L 1172 3053 
L 1172 1153 
Q 1172 725 1289 603 
Q 1406 481 1766 481 
L 2356 481 
L 2356 0 
L 1766 0 
Q 1100 0 847 248 
Q 594 497 594 1153 
L 594 3053 
L 172 3053 
L 172 3500 
L 594 3500 
L 594 4494 
L 1172 4494 
z
" transform="scale(0.015625)"/>
      <path id="DejaVuSans-20" transform="scale(0.015625)"/>
      <path id="DejaVuSans-4e" d="M 628 4666 
L 1478 4666 
L 3547 763 
L 3547 4666 
L 4159 4666 
L 4159 0 
L 3309 0 
L 1241 3903 
L 1241 0 
L 628 0 
L 628 4666 
z
" transform="scale(0.015625)"/>
      <path id="DejaVuSans-77" d="M 269 3500 
L 844 3500 
L 1563 769 
L 2278 3500 
L 2956 3500 
L 3675 769 
L 4391 3500 
L 4966 3500 
L 4050 0 
L 3372 0 
L 2619 2869 
L 1863 0 
L 1184 0 
L 269 3500 
z
" transform="scale(0.015625)"/>
      <path id="DejaVuSans-6b" d="M 581 4863 
L 1159 4863 
L 1159 1991 
L 2875 3500 
L 3609 3500 
L 1753 1863 
L 3688 0 
L 2938 0 
L 1159 1709 
L 1159 0 
L 581 0 
L 581 4863 
z
" transform="scale(0.015625)"/>
      <path id="DejaVuSans-70" d="M 1159 525 
L 1159 -1331 
L 581 -1331 
L 581 3500 
L 1159 3500 
L 1159 2969 
Q 1341 3281 1617 3432 
Q 1894 3584 2278 3584 
Q 2916 3584 3314 3078 
Q 3713 2572 3713 1747 
Q 3713 922 3314 415 
Q 2916 -91 2278 -91 
Q 1894 -91 1617 61 
Q 1341 213 1159 525 
z
M 3116 1747 
Q 3116 2381 2855 2742 
Q 2594 3103 2138 3103 
Q 1681 3103 1420 2742 
Q 1159 2381 1159 1747 
Q 1159 1113 1420 752 
Q 1681 391 2138 391 
Q 2594 391 2855 752 
Q 3116 1113 3116 1747 
z
" transform="scale(0.015625)"/>
      <path id="DejaVuSans-6c" d="M 603 4863 
L 1178 4863 
L 1178 0 
L 603 0 
L 603 4863 
z
" transform="scale(0.015625)"/>
      <path id="DejaVuSans-67" d="M 2906 1791 
Q 2906 2416 2648 2759 
Q 2391 3103 1925 3103 
Q 1463 3103 1205 2759 
Q 947 2416 947 1791 
Q 947 1169 1205 825 
Q 1463 481 1925 481 
Q 2391 481 2648 825 
Q 2906 1169 2906 1791 
z
M 3481 434 
Q 3481 -459 3084 -895 
Q 2688 -1331 1869 -1331 
Q 1566 -1331 1297 -1286 
Q 1028 -1241 775 -1147 
L 775 -588 
Q 1028 -725 1275 -790 
Q 1522 -856 1778 -856 
Q 2344 -856 2625 -561 
Q 2906 -266 2906 331 
L 2906 616 
Q 2728 306 2450 153 
Q 2172 0 1784 0 
Q 1141 0 747 490 
Q 353 981 353 1791 
Q 353 2603 747 3093 
Q 1141 3584 1784 3584 
Q 2172 3584 2450 3431 
Q 2728 3278 2906 2969 
L 2906 3500 
L 3481 3500 
L 3481 434 
z
" transform="scale(0.015625)"/>
      <path id="DejaVuSans-79" d="M 2059 -325 
Q 1816 -950 1584 -1140 
Q 1353 -1331 966 -1331 
L 506 -1331 
L 506 -850 
L 844 -850 
Q 1081 -850 1212 -737 
Q 1344 -625 1503 -206 
L 1606 56 
L 191 3500 
L 800 3500 
L 1894 763 
L 2988 3500 
L 3597 3500 
L 2059 -325 
z
" transform="scale(0.015625)"/>
     </defs>
     <use xlink:href="#DejaVuSans-32"/>
     <use xlink:href="#DejaVuSans-30" transform="translate(63.623047 0)"/>
     <use xlink:href="#DejaVuSans-32" transform="translate(127.246094 0)"/>
     <use xlink:href="#DejaVuSans-36" transform="translate(190.869141 0)"/>
     <use xlink:href="#DejaVuSans-30" transform="translate(254.492188 0)"/>
     <use xlink:href="#DejaVuSans-33" transform="translate(318.115234 0)"/>
     <use xlink:href="#DejaVuSans-32" transform="translate(381.738281 0)"/>
     <use xlink:href="#DejaVuSans-39" transform="translate(445.361328 0)"/>
     <use xlink:href="#DejaVuSans-2d" transform="translate(508.984375 0)"/>
     <use xlink:href="#DejaVuSans-31" transform="translate(545.068359 0)"/>
     <use xlink:href="#DejaVuSans-37" transform="translate(608.691406 0)"/>
     <use xlink:href="#DejaVuSans-34" transform="translate(672.314453 0)"/>
     <use xlink:href="#DejaVuSans-34" transform="translate(735.9375 0)"/>
     <use xlink:href="#DejaVuSans-32" transform="translate(799.560547 0)"/>
     <use xlink:href="#DejaVuSans-32" transform="translate(863.183594 0)"/>
     <use xlink:href="#DejaVuSans-2d" transform="translate(926.806641 0)"/>
     <use xlink:href="#DejaVuSans-37" transform="translate(962.890625 0)"/>
     <use xlink:href="#DejaVuSans-32" transform="translate(1026.513672 0)"/>
     <use xlink:href="#DejaVuSans-48" transform="translate(1090.136719 0)"/>
     <use xlink:href="#DejaVuSans-2d" transform="translate(1165.332031 0)"/>
     <use xlink:href="#DejaVuSans-48" transform="translate(1201.416016 0)"/>
     <use xlink:href="#DejaVuSans-6f" transform="translate(1276.611328 0)"/>
     <use xlink:href="#DejaVuSans-72" transform="translate(1337.792969 0)"/>
     <use xlink:href="#DejaVuSans-69" transform="translate(1378.90625 0)"/>
     <use xlink:href="#DejaVuSans-7a" transform="translate(1406.689453 0)"/>
     <use xlink:href="#DejaVuSans-6f" transform="translate(1459.179688 0)"/>
     <use xlink:href="#DejaVuSans-6e" transform="translate(1520.361328 0)"/>
     <use xlink:href="#DejaVuSans-2d" transform="translate(1583.740234 0)"/>
     <use xlink:href="#DejaVuSans-54" transform="translate(1610.699219 0)"/>
     <use xlink:href="#DejaVuSans-65" transform="translate(1654.783203 0)"/>
     <use xlink:href="#DejaVuSans-73" transform="translate(1716.306641 0)"/>
     <use xlink:href="#DejaVuSans-74" transform="translate(1768.40625 0)"/>
     <use xlink:href="#DejaVuSans-20" transform="translate(1807.615234 0)"/>
     <use xlink:href="#DejaVuSans-4e" transform="translate(1839.402344 0)"/>
     <use xlink:href="#DejaVuSans-65" transform="translate(1914.207031 0)"/>
     <use xlink:href="#DejaVuSans-74" transform="translate(1975.730469 0)"/>
     <use xlink:href="#DejaVuSans-77" transform="translate(2014.939453 0)"/>
     <use xlink:href="#DejaVuSans-6f" transform="translate(2096.726562 0)"/>
     <use xlink:href="#DejaVuSans-72" transform="translate(2157.908203 0)"/>
     <use xlink:href="#DejaVuSans-6b" transform="translate(2199.021484 0)"/>
     <use xlink:href="#DejaVuSans-20" transform="translate(2256.931641 0)"/>
     <use xlink:href="#DejaVuSans-54" transform="translate(2288.71875 0)"/>
     <use xlink:href="#DejaVuSans-6f" transform="translate(2332.802734 0)"/>
     <use xlink:href="#DejaVuSans-70" transform="translate(2393.984375 0)"/>
     <use xlink:href="#DejaVuSans-6f" transform="translate(2457.460938 0)"/>
     <use xlink:href="#DejaVuSans-6c" transform="translate(2518.642578 0)"/>
     <use xlink:href="#DejaVuSans-6f" transform="translate(2546.425781 0)"/>
     <use xlink:href="#DejaVuSans-67" transform="translate(2607.607422 0)"/>
     <use xlink:href="#DejaVuSans-79" transform="translate(2671.083984 0)"/>
    </g>
   </g>
  </g>
 </g>
 <defs>
  <clipPath id="clipPath1">
   <rect x="7.2" y="37.837813" width="715.890762" height="667.6"/>
  </clipPath>
 </defs>
</svg>
